<?xml version="1.0"?>
<svg xmlns:rdf="http://www.w3.org/1999/02/22-rdf-syntax-ns#" xmlns="http://www.w3.org/2000/svg" xmlns:cc="http://web.resource.org/cc/" xmlns:xlink="http://www.w3.org/1999/xlink" xmlns:dc="http://purl.org/dc/elements/1.1/" xmlns:svg="http://www.w3.org/2000/svg" id="cupid_and_his_list_xA0_Image_1_" style="enable-background:new 0 0 406.727 266.959" xml:space="preserve" viewBox="0 0 406.727 266.959" version="1.1" y="0px" x="0px">
<g clip-rule="evenodd" fill-rule="evenodd">
	<path d="m376.41 7.705c-1.084 3.485 0.755 3.638 2.262 5.429 0.118 1.325-1.022 1.39-0.904 2.715 2.563 7.412-5.002 12.064-10.406 14.479-3.373-0.604-4.256-0.025-6.787 0.905-2.463-1.308-3.472-4.07-7.239-4.072-0.434-0.924-0.924-1.79-1.357-2.714-1.303-0.054-2.962 0.247-3.619-0.453 0.16-3.061-1.524-6.303-1.357-9.501 0.135-2.587 2.1-6.484 2.715-9.954 2.572-0.444 4.394-1.639 4.977-4.072 9.33-1.902 16.65 2.313 21.73 7.238zm-20.81-4.977c-0.761 2.406-3.305 3.029-4.977 4.524-0.417 4.188 2.084 5.457 4.977 6.334 2.362-1.711 5.466-2.679 8.597-3.62 0.366-3.684-0.259-6.376-1.81-8.144-3.4-0.999-4.12 2.634-6.79 0.906zm10.86 4.072c1.624 0.266 2.188-0.526 3.167-0.905-1.233-1.481-2.137-3.292-4.524-3.62-0.11 2.065 0.75 3.161 1.35 4.525zm-0.45 4.072c0.957 2.437 1.419 4.281 0.904 7.239 4.129-0.509 4.607 2.632 6.335 4.524 4.993-0.071 2.023-5.909 2.714-8.597-1.778-0.936-1.694-3.735-2.262-5.882-3.16-1.39-7.37-0.217-7.68 2.716zm-8.15 7.692c4.031 4.365 9.99-1.762 5.882-5.882-4.52-0.6-6.48 1.36-5.88 5.882zm-2.26-2.715c-2.671-0.331-4.93-4.702-7.238-1.357 0.933 2.735 2.183 3.566 1.357 7.239 2.979 0.036 3.76 2.272 4.977 4.072 4.59-1.194 2.9-7.241 0.9-9.954zm9.95 3.62c-1.104 1.609-3.153 2.275-5.429 2.715-1.121 1.779-2.171 5.465 0 6.787 2.671-0.161 4.22-2.088 6.334-0.453 1.221-1.245 2.258-2.252 4.524-1.357 2.7-4.018-1.98-6.943-5.42-7.692z"/>
	<path d="m73.271 12.229c2.695 0.282 3.066-1.76 5.429-1.81 1.009 0.952 2.415 1.506 2.262 3.619 6.018 0.273 6.728 9.599 4.524 14.026-0.171 1.981 1.293 2.326 1.357 4.072-0.397 1.412-1.694 1.926-2.715 2.715-0.596 7.85-9.144 7.748-13.121 12.216-2.51-1.751-4.06 0.866-5.882 0.452-3.672-0.834-3.732-6.067-7.691-7.239-0.354-1.455-0.621-2.999-1.357-4.072-0.818-0.991-2.639-0.981-3.62-1.81-0.523-3.087 1.118-4.01 1.81-5.882-0.003-3.675-0.511-7.021-0.905-11.311 0.53-0.073 0.382-0.825 0.453-1.357 2.535-0.632 3.657-2.677 4.524-4.977 1.03-0.22 2.312-0.897 3.167 0 3.531-3.709 9.086-1.693 11.765 1.358zm-2.262 2.263c-1.725-6.582-7.568-1.359-11.764-1.357-0.717 2.601-3.076 3.56-4.524 5.43 1.974 6.704 10.233 4.478 15.836 2.714-0.729-3.25 0.966-4.825 0.452-6.787zm1.357 6.786c1.775 2.146 4.854 2.989 7.239 4.525-3.417 3.588-5.395 12.184-12.668 9.049-3.867 1.962-6.256 8.842-1.357 10.406 0.973 0.311 1.719-0.881 3.62-0.905 2.989-0.038 3.865-0.374 5.882-1.81 0.542-1.778-1.385-3.4 0-4.524 1.364 0.295 1.541 1.777 2.715 2.262 4.363-0.765 3.728-6.528 6.334-9.049-0.686-2.331-1.561-4.472-1.81-7.239 1.049 0.145 1.737-0.073 2.262-0.453-0.085-2.479-0.838-4.29-1.357-6.334-2.18-0.686-4.659-1.072-4.524-4.072-5.41-0.582-4.794 4.86-6.336 8.144zm-8.144 8.597c1.428 5.503 13.167 5.152 10.859-4.072-4.044-4.285-12.558-2.475-10.859 4.072zm-8.597-4.524c1.193 3.484-0.308 5.693-1.81 7.691 5.556-0.88 2.183 7.168 7.239 6.787 1.848-1.471 2.081-4.556 3.62-6.334-2.287-1.183-1.901-5.037-2.715-7.691-1.967-0.865-4.365-1.943-6.334-0.453z"/>
	<path d="m145.21 11.325c1.976 0.015 2.672-1.25 4.524-1.357 1.817 0.445 2.774 1.75 2.715 4.072 0.744 0.764 2.455 0.562 3.167 1.357-1.392 2.517 0.894 4.42 0.905 6.787 0.022 4.723-3.06 7.972-5.882 10.858-4.04-0.782-5.877 2.788-8.596 2.715-2.424-0.065-3.346-3.153-6.334-1.81-2.211-0.806-2.937-3.096-5.882-3.167-1.395-2.25-1.024-6.28 0.452-8.144-1.066-5.112 0.762-7.658 0.905-11.764 1.548-0.427 2.803-1.417 4.524-0.452 2.33-2.628 7.72-0.993 9.51 0.905zm-12.21 1.357c0.701 3.265-1.804 3.323-1.357 6.334 0.353 0.1 0.526 0.379 0.453 0.905 4.375 1.887 5.427-2.855 9.049-3.167 2.372 0.444 2.865 1.581 5.43 0.905-0.27 0.938 0.559 2.973-0.453 3.167-1.377-1.187-4.088-1.039-5.429-2.262-3.673 0.203-4.309 6.264-0.453 6.787-0.876-2.008-0.69-5.446 2.262-4.977 2.202 2.866 2.499 5.136 1.357 8.597-3.836-1.141-7.891-2.063-8.597-6.334-4.147-0.897-5.341 3.293-4.072 6.334 1.37 0.553 2.424-0.378 4.072 0.453v1.81c3.305-0.59 4.477 0.953 5.882 2.262 3.43-1.856 15.539-3.173 11.312-8.144-3.348-0.669-5.766 0.084-7.239 0.453 0.485-1.174 0.288-3.031 1.357-3.62 2.918-0.099 5.042 2.656 8.144 0.905-0.38-2.61-1.893-3.394-0.905-6.334-2.408-0.458-3.43-2.301-4.072-4.524-3.424-1.447-3.944 2.26-5.882 3.62-0.714-0.945-0.313-3.004-0.905-4.072-3.46-2.437-6.03 1.101-9.94 0.902z"/>
	<path d="m360.12 14.944h2.262c0.478 1.204 0.852 3.476-0.452 4.072-2.03 0.07-1.88-2.033-1.81-4.072z"/>
	<path d="m348.81 25.351c0.409 4.834 3.036 9.838 3.167 16.288-1.718 2.656-5.213 3.534-5.882 7.239-4.042-0.506-5.8 3.28-9.501 3.167-3.432-0.104-5.541-4.067-9.954-3.62-2.253-1.97-2.414-6.032-5.882-6.787-0.392-5.199-2.467-8.688 0.904-12.216-1.637-5.58 2.438-7.685 4.072-11.312 4.07-2.929 9.528 0.635 13.121 2.262 1.728 0.404 2.888-0.739 3.62 0 2.43 1.34 3.68 3.866 6.33 4.979zm-25.33 1.357c0.282 2.3 5.066 5.272 7.239 4.977 2.114-0.288 6.611-5.05 6.786-6.787 0.505-5.008-3.934-6.946-7.691-2.714-1.227-0.282-1.126-1.891-2.715-1.81-1.24 2.677-4 3.31-3.62 6.334zm19.9-4.072c-1.083-0.273-2.064-0.65-3.619-0.452-2.761 4.852 0.939 9.911 3.619 12.216 2.537-0.264 3.068-0.039 4.978-0.452 0.89-4.648-3.54-7.516-4.98-11.312zm-2.71 12.216c-0.292-6.714-12.495-4.648-8.597 4.072 4.21 2.686 8.75-0.717 8.6-4.072zm-18.1-3.62c-2.393 1.242-1.268 5.75 0.452 6.787 0.186 1.09-0.826 0.983-0.452 2.262 3.256-0.089 2.071 4.264 4.977 4.524 1.277-1.588 4.851-0.88 5.882-2.714-1.599-2.323-3.924-3.918-4.071-7.692-2.18-1.137-4.08-2.563-6.79-3.167zm16.74 9.502c-0.617 1.984 0.63 4.949-0.452 7.239 2.574 1.361 2.796-2.651 5.882-0.905 0.25-3.219 2.673-4.265 4.978-5.43 0.137-2.098-0.005-3.917-0.905-4.977-4.41-1.128-8.23-0.045-9.51 4.073zm-6.33 7.691c1.588 0.524 2.442 1.781 4.524 1.81 1.057-2.068-0.783-5.249 0.453-7.692-2.47-1.945-5.2 2.259-4.97 5.882zm-4.98-1.809c0.855 0.897 2.138 0.22 3.167 0 0.23-2.236-3.16-1.397-3.17 0z"/>
	<path d="m71.914 25.803c1.122 2.582 0.062 5.807-3.62 4.977-1.164-1.406-1.266-1.817-0.905-4.072 1.161-0.902 2.847-1.777 4.525-0.905zm-2.715 3.62c0.788 0.034 1.407-0.101 1.81-0.453-0.055-1.151-0.658-1.754-1.81-1.81-0.58 0.595-0.58 1.668 0 2.263z"/>
	<path d="m337.5 34.399c0.36 2.336-1.304 2.917-2.715 2.262-0.379-0.525-0.597-1.213-0.452-2.262 0.61-0.645 2.57-0.645 3.17 0z"/>
	<path d="m278.23 39.376c1.36-0.456 0.802 1.008 0.904 1.81h-1.357c-0.18-0.945 0.32-1.198 0.46-1.81z"/>
	<path d="m309.9 54.76c-0.06 1.448-1.025 1.991-2.715 1.81-2.09-2.363 2.1-4.609 2.72-1.81z"/>
	<path d="m185.03 55.212c-0.286 2.429-2.322 3.107-3.167 4.977-2.304-0.411-2.271-3.159-4.524-3.62 1.79-1.021 5.67-2.022 7.69-1.357z"/>
	<path d="m116.71 60.642c-1.667 3.31-1.869 8.085-6.334 8.597 1.553-3.123 3.369-5.981 4.977-9.049 0.72-0.128 0.77 0.427 1.35 0.452z"/>
	<path d="m327.1 80.549c-1.046 0.914-3.471 0.462-4.072-0.452 0.02-3.126 4.8-3.758 4.07 0.452z"/>
	<path d="m131.18 79.645c0.959 0.143 0.098 2.145-0.905 1.81-0.33-1.235 0.9-0.912 0.9-1.81z"/>
	<path d="m329.81 103.17c-0.201 2.011 1.226 2.394 1.81 3.62 1.661 0.3 3.439 0.481 4.978 0.905 0.703 2.765 1.988 4.949 3.167 7.239-0.898 0.309-1.035 1.378-1.81 1.81 0.85 4.208 1.891 7.318 0 10.406-0.898 1.466-2.823 1.581-4.072 2.715-1.362 1.236-1.422 3.528-3.167 3.62-3.439-1.889-4.825 1.181-9.502 0.452-1.36-0.751-1.771-2.453-2.715-3.62-1.457-0.1-1.914 0.8-3.619 0.453-2.172-1.208-3.922-4.53-3.167-7.239-0.661-1.451-2.917-1.307-3.62-2.715-1.147-4.612 2.414-7.627 4.978-9.954-0.55-3.566 0.861-5.171 2.262-6.787 1.066 0.01 1.332-0.779 2.715-0.452 1.487-0.473 1.877-2.044 3.167-2.715 2.76 0.85 5.54 1.69 8.6 2.25zm-8.6 0.91c-0.625 2.614-3.008 1.064-4.977 1.81-2.68 4.222 1.562 7.24 4.524 8.597 1.647-1.845 4.006-2.094 6.334-2.262 0.658-1.906 1.535-3.593 1.81-5.882-1.38-2.86-4.4-1.95-7.68-2.27zm6.34 11.76c1.051 1.211 4.155 0.369 4.524 2.262-1.691 1.777-2.49 4.447-3.619 6.787-1.994-0.117-3.5-0.723-5.882-0.453 0.314 2.268-1.183 3.066-1.81 5.43 1.925 4.096 6.299-0.931 9.501 1.357 3.364-3.015 8.379-7.51 5.43-14.026 1.569-2.701 0.353-5.422-0.905-7.691-4.5-2.17-6.38 2.28-7.23 6.33zm-14.93-0.9c0.8 0.407 1.321 1.092 2.263 1.357 0.006-0.899 1.234-0.575 0.904-1.81-0.98-0.25-2.92-1.1-3.16 0.45zm9.5 0c-1.138 0.63-3.359 4.667-0.453 5.882-0.233-2.496 0.653-3.871 2.715-4.072 0.194 0.861 0.975 1.137 0.905 2.262 0.033 2.145-2.297 1.926-2.715 3.62 2.077 1.265 4.547-0.43 5.43-1.81 0.11-4.02-2.81-7.58-5.87-5.88zm-10.86 1.81c-2.339 2.731 1.477 4.474 2.715 6.334 0.177 2.495-0.489 3.142 0 4.977 0.778-0.024 1.16 0.349 1.357 0.905 2.706-0.612 4.802-1.834 5.43-4.524-1.612-1.857-1.761-5.177-2.263-8.144-2.77 1.02-4.21 1.67-7.25 0.45z"/>
	<path d="m71.461 213.12c-3.584 1.092-6.863-1.825-11.764-0.904 0.167-0.771-0.353-0.854-0.905-0.905 0.727-1.756 3.461-2.022 5.429-1.81 2.493 0.26 6.443 1.83 7.24 3.61z"/>
	<path d="m210.82 5.895c1.479 2.426-0.92 3.154-1.357 4.977 2.204 1.233 5.764-1.031 8.144 0.453-0.445 1.817-3.761 0.764-4.071 2.714 0.877 2.476 3.554 0.945 4.977 2.263 0.781 1.537 0.314 3.316 0 4.977 2.467 2.812 2.969 7.588 4.977 10.859 2.872-3.023-0.112-6.726 0.453-11.311 2.214-2.612 7.115-2.537 9.501-4.977 3.376-0.208 3.987 2.347 7.691 1.81 1.899 0.514 2.271 2.556 5.43 1.81 1.425 0.536 1.281 2.64 3.167 2.715 5.644-3.104 7.693-9.802 13.121-13.121 4.204 0.842 1.337 7.08 1.357 10.406-0.055 1.865 2.44 1.18 2.715 2.715 0.327 6.687-2.965 12.082-1.81 18.098 6.856-0.251 11.899-6.183 17.646-9.049 6.71 4.295-2.192 11.733-1.81 14.931 1.865 0.63 5.163-0.059 7.691 0.905 0.224 2.637-0.13 4.696-0.905 6.334 1.579 1.019 4.646 0.308 5.882-0.452 0.676-1.285 0.649-3.272 1.357-4.525 3.171-1.354 3.907-5.142 5.882-7.691 3.282 0.267 4.802-1.171 7.239-2.715 0.808 2.511 3.599 3.037 5.882 4.072 0.695 3.377 3.064 5.08 5.882 6.334 0.212 3.106 1.007 5.629 1.81 8.145-1.146 2.925-3.562 4.583-4.071 8.144 1.998 1.438 2.32-2.017 4.071-2.262 3.229 0.165 2.62 3.08 6.335 1.81 1.599 0.814 1.987 2.839 3.619 3.62 1.489-0.019 2.253-0.764 4.072-0.453 4.153 2.179 5.596 5.689 5.882 10.859-1.101 3.876-5.301 4.653-4.977 9.954-2.26 0.305-2.701 2.427-3.62 4.072-3.476-0.177-7.383 1.118-10.406 0.453-2.677-0.589-4.142-3.341-6.334-3.167-0.985-0.976-1.575-2.347-1.811-4.072-1.237-0.722-1.929 0.225-3.167-0.905 0.887-4.269-0.109-6.057-1.357-9.049 0.844-1.72 2.028-3.1 4.072-3.619-0.208-2.923 1.313-4.116 2.263-5.882-5.026 0.308-6.515-7.882-10.859-7.239-1.265 0.187-2.384 0.841-2.715 2.714-0.2 2.312 3.201 1.022 4.978 1.357 1.209 1.262-0.424 2.235-0.453 3.62 1.728 0.404 2.889-0.739 3.62 0-0.674 2.494-4.653 1.681-6.787 2.715-2.906 3.729-3.532 9.739-6.334 13.573-3.011 0.76-4.17 3.371-7.239 4.072-4.465 2.787-6.748 8.991-12.216 9.501-5.222 0.488-8.695-4.757-14.931-4.524-0.066 3.736 5.269 5.854 8.144 8.144 0.459 3.01 4.165 2.772 4.072 6.334-1.433 2.489-2.87 4.973-6.787 4.977-2.347 3.518-3.783 4.897-8.597 7.239-1.965 0.957-3.479 2.642-5.429 1.81-1.518 1.8-4.649 1.986-5.882 4.072-1.695 0.036-1.368-1.95-3.62-1.357-1.755 0.055-2.286 1.333-3.167 2.262-6.161-0.167-14.859 2.186-22.17 0-0.601 5.163 2.399 10.542 3.167 15.836 3.164-0.337 5.243 1.744 8.145 0.905 2.903-0.841 2.593-4.284 4.977-4.525 2.535-0.256 4.238 1.824 4.524 5.882 9.089-0.861 15.964 3.399 23.979 3.167 0.855 0.05 0.314 1.496 1.357 1.357 16.029 2.595 32.706 6.869 47.508 12.216 2.163 0.781 4.103 1.962 6.334 2.715 1.217 0.41 2.649 0.098 4.072 0.452 1.966 0.49 3.634 1.888 5.43 2.263 1.799 0.375 3.62-0.153 5.429 0.452 1.314 0.439 2.556 2.062 4.072 2.715 2.349 1.012 4.999 1.47 7.691 2.715 2.353 1.088 4.895 2.025 7.239 3.167 7.728 3.764 12.33 5.927 17.646 10.858 0.521 0.483 0.816 1.731 1.357 2.263 3.291 3.227 8.147 8.449 0.453 10.858-4.691 6.648-3.893 18.466-14.932 18.099-6.218-0.207-12.632-4.05-18.098-6.335-0.594 0.16-0.712 0.797-1.357 0.905 1.856 5.563 6.199 8.688 10.406 12.216 3.082 2.585 5.746 4.295 9.954 6.787 2.705 1.603 5.695 3.704 7.691 3.167 2.646-0.711 1.456-2.234 2.715-5.43 0.745-1.89 2.761-5.375 3.62-6.334 0.753-0.841 5.398-3.644 5.882-4.524 1.1-2.005 1.209-5.459 0.904-7.691-0.444-3.269-3.415-5.072-0.452-7.692 2.144-0.402 4.113-0.923 6.334-1.356 1.76-0.344 4.288-1.312 5.882-1.357 6.965-0.204 11.468 4.396 14.931 8.596-0.643 2.441-0.614 3.523-2.714 4.978-0.349 1.705 0.552 2.163 0.452 3.619-3.435 8.962 0.627 17.432-0.905 24.433-0.667 3.048-2.869 7.414-4.977 9.954-4.95 5.964-12.749 9.609-23.527 9.049-2.553-0.133-5.655-0.495-8.145-0.905-2.541-0.418-5.475-2.197-8.144-2.714-1.064-0.207-2.287 0.297-3.168 0-1.346-0.455-3.786-1.972-5.881-3.168-8.586-4.898-17.531-11.414-24.433-18.55-4.388-4.537-8.703-8.776-10.859-14.479-2.056-5.438-2.13-9.663 0-14.026 3.385-2.497 7.421-4.343 11.312-6.334 3.252-7.297-5.049-9.454-10.858-11.764-3.433-1.364-7.097-2.759-11.312-4.072-2.135-0.665-4.204-0.782-6.334-1.357-7.497-2.023-12.266-3.998-19.908-4.977-4.565-0.585-8.736-3.817-12.669-1.81 0.275 2.138 2.968 1.858 5.43 1.81 0.958 3.718 3.899 5.45 6.787 7.239-0.138 3.153 0.703 5.329 2.262 6.786-1.866 4.619-3.822 9.148-7.239 12.217-4.358 1.903-8.734 1.319-12.216 3.619-4.022-2.463-5.272-7.698-8.597-10.858 1.641-3.825-1.456-5.218-1.357-8.145 0.146-4.332 5.689-5.143 6.335-9.954 3.705 0.086 5.188-2.052 7.239-3.619-4.773-2.696-15.034-1.987-21.718-4.072-2.72 1.824-2.089 6.507-2.715 11.312-1.689 12.962-4.712 28.031-6.335 39.815-1.118 0.54-1.769 1.549-2.262 2.715-1.971 0.593-4.327 0.801-5.882 1.81 0.612 9.559-2.941 19.011 0.905 27.147-0.291 1.82 0.588 4.811-0.453 5.882-5.164 4.939-16.322 3.887-22.622 7.691-2.221-0.814-4.851-1.164-6.787 0-1.066-1.586-2.337-1.215-4.524-0.905-1.96-3.167-5.055-5.2-8.144-7.239v-3.167c3.218-4.021 11.111-3.367 15.383-6.334-3.842-6.968-21.415 3.397-23.075-7.691 2.236-2.862 6.703-2.222 10.858-4.072 3.467-1.544 7.117-3.83 9.501-6.787-1.945-11.76-3.487-23.912-9.049-33.028-0.35-2.159 0.708-2.912 0.453-4.978 0.211-1.418-1.138-1.275-1.81-1.81-1.195-5.246-4.401-10.707-6.334-16.74-1.198-3.737-1.2-7.393-4.525-9.05-3.445 0.569-8.673-0.938-11.764 0.905-3.087-1.729-7.933 0.074-12.216 0.452-2.835 0.251-5.243-0.249-7.692 0-4.317 0.439-10.607 1.832-15.836 2.715-3.277 0.554-5.955 1.369-9.501 2.263-6.62 1.667-12.924 2.31-18.098 4.072-6.608 2.25-11.907 7.731-12.669 15.383-0.128 1.292-0.296 2.73 0 4.072 0.321 1.451 2.227 2.835 2.715 4.524 2.379 8.239-1.977 17.415-10.406 18.551-2.903 0.391-6.553 0.201-9.954 0-1.642-0.098-3.332-0.767-4.977-0.905-3.264-0.275-6.73 0.36-9.501 0-2.332-0.303-5.257-1.579-7.692-2.715-4.662-2.176-9.594-5.238-13.573-8.597-3.749-3.164-7.04-6.293-10.859-11.312-6.37-8.37-15.773-20.233-19.003-30.313-0.86-2.684-1.279-5.693-1.81-8.145-0.882-4.068-3.088-14.188 1.357-17.646 3.078-2.394 9.071-0.797 12.216-1.357 3.511-0.625 4.729-3.412 8.144-4.977 4.494 1.696 6.441-3.726 9.049-4.072 2.906-0.385 3.549 1.751 6.334 3.167-0.125 2.84 0.088 5.341 1.357 6.787 2.91-0.573 5.417-3.019 8.597-2.715 2.293 0.219 3.43 1.958 5.429 2.715 1.053 5.458 2.131 9.264 4.977 13.573 2.343 3.549 3.219 6.89 9.501 6.334 5.39-0.476 10.865-2.812 16.288-4.524 2.623-0.828 5.413-1.405 8.144-2.262 8.106-2.541 19.96-6.369 29.862-7.691 1.102-0.147 2.467 0.206 3.62 0 4.351-0.778 8.183-2.075 12.216-2.715 2.463-0.391 7.543 0.013 11.312-0.453 1.543-0.19 2.987-1.117 4.524-1.357 6.341-0.988 13.157 0.145 18.551-3.167 2.156-9.744 5.442-15.625 6.787-26.242-4.408-1.339-11.582-0.25-18.098-0.905-3.527-0.355-8.232-1.306-12.668-1.81-5.615 2.227-8.643 7.042-11.312 12.216-2.936-3.097-4.911-7.154-7.239-10.859-5.312-1.834-9.816-6.695-9.954-12.216-1.334-1.984-3.877-2.758-3.62-6.334-0.906-0.753-1.676-1.642-3.167-1.81-4.129-6.126-10.267-10.244-18.55-12.216-0.341-1.619-1.903-2.018-3.167-2.714 0.576-5.607 0.778-11.589 3.62-14.931 4.888-1.044 5.271 6.653 9.501 6.787 6.543 0.207 5.93-13.705 9.501-17.193 2.582 1.797 3.757 5.039 5.429 7.692 1.683 2.668 3.594 5.293 4.977 8.144 9.705 2.059 17.544 5.983 22.623 12.668 2.435-0.426 3.707 1.906 5.882 2.715 1.333 0.496 3.642 0.258 5.429 0.905 1.082 0.392 2.477 1.317 3.62 1.81 2.668 1.15 6.072 3.963 8.597 4.072 1.813 0.078 7.127-2.049 9.501-3.167 1.642-0.773 3.225-2.089 4.524-3.167-0.325-1.56-2.048-0.622-2.715-2.262-0.232-0.573 0.347-1.763 0-2.262-1.522-2.192-2.941-3.021-5.429-4.072 0.1-1.457-0.8-1.915-0.453-3.62-1.723-0.992-3.897-1.532-4.977-3.167-0.582-3.146 1.445-3.682 1.357-6.334-0.833-1.304-4.298-0.416-5.882-0.453-4.064-2.505-6.271-4.106-5.882-8.597 0.238-2.745 4.437-5.214 1.81-8.144-1.88-0.79-2.894-0.018-4.977-0.905-2.497-2.91-2.711-7.64-1.357-10.406 0.303-0.62 1.693-1.031 2.715-2.262 0.781-0.941 1.08-2.438 1.81-3.167 1.012-1.01 2.883-1.525 4.072-2.714 1.764-1.764 2.944-4.655 4.524-5.882 2.028-1.576 5.312-2.135 7.239-3.62 2.239-1.725 2.722-3.804 4.524-5.43 3.983-2.541 10.589-1 12.668 2.262 3.194-0.479 4.513 0.917 6.787 1.357 3.31-1.067 5.84-5.052 10.06-3.622zm28.5 32.577c-2.586 2.772-5.882 4.772-8.144 7.239-4.418 4.818-3.453 11.332-3.168 19.003-0.717 2.148-3.996 1.734-4.071 4.524 8.781 0.186 4.638-12.555 8.596-17.193 1.279 0.374 1.173-0.638 2.263-0.452 0.539-0.97 0.488-2.528 1.357-3.167 8.168-6.73 19.483-15.762 24.885-25.79 1.25-2.32 0.924-6.294 0.905-9.501-0.101-0.353-0.379-0.526-0.905-0.452-5.97 8.092-14.62 18.172-21.72 25.789zm-8.6-17.646c-1.981-0.618-2.326-0.056-4.071 0.452-0.274 1.084-0.651 2.064-0.453 3.62 3.43 1.488 7.373 0.31 9.954 0 2.295-0.275 5.196 0.971 6.334-0.905 0.33-2.14-0.645-2.974-1.357-4.072-5.16-0.136-7.25-2.225-10.4 0.905zm11.77 9.502c2.252-0.096 4.731-3.652 5.882-6.334-0.54-1.119-1.549-1.769-2.715-2.262-1.72 2.201-2.9 4.949-3.17 8.596zm5.43 12.668c-1.867 0.848-3.864 1.565-4.072 4.072 5.093 1.783 8.63-2.646 11.764-5.882 4.713-4.867 9.097-9.25 9.502-17.193-0.101-0.353-0.379-0.526-0.905-0.453-4.65 7.262-11.41 12.418-16.28 19.456zm-12.22-11.311c-0.943-4.611 3.807-1.942 4.977-3.62-2.29-4.763-10.62 0.962-4.98 3.62zm-10.4 0.905c0.734 1.979 4.316 1.113 3.619 4.524 2.911-0.347 2.107 3.021 4.524 3.167 1.111-1.452 3.47-1.658 3.62-4.072-1.563-2.358-5.521-2.321-4.978-6.787-0.646-0.108-0.763-0.745-1.357-0.905-1.51 1.652-5.22 1.111-5.42 4.073zm12.66 0.905c-1.464 0.559-0.346-1.464-1.81-0.905-0.33 1.003 1.67 1.864 1.81 0.905zm-14.02 13.573c3.602-0.622 5.755-2.691 7.239-5.43-0.561-2.004-3.011-2.117-4.524-3.167 0.722-3.437-2.226-3.205-3.168-4.977 1.22 5.17-1.87 9.371 0.45 13.574zm57.46-11.763c-0.605 0.114-0.933 0.622-1.357 0.905-7.176 4.782-19.208 10.493-28.957 12.668-6.828 1.524-14.839 3.061-17.646 7.239-0.52 5.877-1.617 10.746-4.072 14.479-1.256 1.91-5.043 3.222-3.167 6.334 6.939-0.466 12.175-10.832 10.406-18.55 3.552-2.228 7.962-4.038 11.764-2.715 3.498-2.021 7.782-2.116 11.764-3.62 4.416-1.667 10.142-3.206 14.026-4.977 1.352-0.616 2.672-1.314 4.072-1.81 0.449-3.973 5.542-5.552 4.071-9.954-0.29 0.001-0.59 0.001-0.89 0.001zm-76.47 8.596c-1.2-0.486-1.815-1.68-3.167-2.262-5.302-2.283-12.42-2.098-18.098-3.62-1.299-0.348-2.088-1.151-3.167-1.357-2.404-0.46-6.423-1.078-8.144-0.905-2.022 0.204-4.324 0.604-4.524 3.167 7.517 1.431 14.419 2.637 20.812 4.525 2.436 0.719 5.236 1.078 7.692 1.81 4.862 1.449 14.316 8.358 17.646 4.072-0.88-4.544-4.29-3.503-9.05-5.43zm52.49 0c2.215 0.103 2.844-1.379 4.978-1.357 0.3-1.027 1.169-3.794-0.452-4.072-1.43 1.89-3.52 3.126-4.53 5.429zm43.43-1.358c-0.253 0.652-0.705 1.104-1.357 1.357-0.623 4.092 3.098 3.84 4.072 6.334-2.368 1.023-3.328-2.091-6.787-1.357-0.253 0.652-0.705 1.104-1.357 1.357 0.162 1.347 0.721 2.295 1.357 3.167 2.218 0.106 3.426-0.797 5.882-0.452 1.628-1.866 4.597-5.575 7.692-3.167 1.784-0.779 3.256-1.872 4.071-3.62-1.146-1.719-1.993-3.738-5.429-3.167-0.58-1.079-0.866-2.452-2.263-2.715-1.68 1.492-2.6 3.469-5.87 2.263zm-100.44 13.122c-1.875-1.191-4.073 0.585-5.882 0.905-1.09-3.585-5.584-3.767-5.882-8.145-2.742-2.965-4.689-0.168-7.239 0.453-3.032 0.739-5.098-0.634-7.691 0-0.472 1.282-0.472 1.885 0 3.167 2.364-1.115 6.396-1.197 8.596 0-2.066 1.92-4.937 0.229-7.239 1.81 1.113 3.677-1.372 6.041-0.905 8.597 0.627 1.333 3.396 0.525 4.072 1.81-0.68 0.733-0.68 3.338 0 4.072 2.803-0.089 5.767-0.337 5.882 2.262-1.463 0.869-0.613 5.604 1.357 5.882 2.12 0.46 2.037-1.281 2.714-2.262 5.136 1.218 6.827-2.514 9.954-4.525 0.976-1.889 0.877-4.854 3.167-5.429 1.121 0.689 0.809 2.811 2.715 2.715 2.884-0.487 7.908-1.92 10.406 0-0.051 1.156-0.829 1.583-1.357 2.262-2.675-0.623-6.085-1.439-9.049-0.453-5.29 5.719-12.496 9.523-18.098 14.931-4.508 0.877-7.967 5.92-13.573 6.334-2.056 0.152-4.316-0.581-6.334-0.452-3.549 0.227-7.418 1.025-10.406 0.905-5.718-0.229-12.165 1.221-17.646 0.453-5.26-0.738-10.356-4.205-14.931-3.62-1.563 0.2-5.082 0.996-3.62 3.62 1.511 1.602 4.547-0.907 5.882 0.452-1.27 1.778-2.89 1.804-3.167 4.072-0.435 3.56 4.605 10.035 9.954 10.406 2.541 0.177 4.88-1.365 7.239-1.81 1.319-1.726-0.54-4.359 2.262-4.977 1.346 1.218 1.527 3.601 2.714 4.977 5.963-0.864 10.987 1.518 16.289 2.262 4.136 0.582 9.431-0.292 14.026-0.452 2.437-0.085 4.826 0.561 6.787 0 2.567-0.734 7.845-4.431 10.406-5.882 1.147-0.65 2.844-1.292 3.62-1.81 2.28-1.522 3.689-4.345 6.334-5.429 3.307-1.356 6.971-0.966 10.859-1.81-0.093 1.416 0.305 3.321-0.452 4.072-5.52-1.329-9.128 2.851-14.026 3.62-0.922 3.385-4.278 3.872-4.524 7.239-0.19 2.598 2.408 5.429 3.62 8.597 1.578 4.124 1.923 8.507 4.072 10.858v2.715c4.884 9.604 10.69 20.519 14.931 30.314 0.831 1.919 0.814 4.303 2.715 5.43 2.438-4.548-0.688-8.678-1.81-11.312-0.461-1.083-0.441-2.609-0.905-3.62-1.412-3.077-3.768-5-4.524-7.239-2.351-6.958 2.403-11.382 3.167-19.455-5.756-3.844-1.736-9.634 0.453-13.573 1.491-2.684 2.311-5.043 3.619-8.145 0.825-1.955 2.172-3.419 2.715-4.977 0.208-0.597-0.236-1.732 0-2.715 0.278-1.154 1.255-1.829 1.357-2.715 0.945-8.136-5.537-11.57-1.357-19.908-1.235-2.686-3.452-4.39-5.43-6.334-1.453 0.042-3.385-0.398-4.524-1.81-3.311 0.597-4.533-0.896-7.239-0.905-0.98-0.98-1.455-2.466-2.262-3.62-2.254-0.575-3.381 2.324-4.525 1.357 1.1-0.861 3.09-0.825 2.71-3.168zm76.92-5.882c-10.282 1.591-19.103 5.485-28.052 7.692 0.869 3.057 5.145 2.186 7.239 0.905 5.849 0.075 13.18-1.878 19.455-2.715 5.61-0.748 10.136-0.728 10.406-5.882-2.36-1-5.62-0.533-9.06 0zm40.72 0c-0.437-0.921-1.737-0.977-3.167-0.905-0.65 2.141 3.29 3.311 3.17 0.905zm-6.34 7.239c2.313-4.747-3.329-7.355-6.787-4.977 0.821 2.149 0.432 2.78 0.905 4.977 2.03 0.895 4.07 1.009 5.89 0zm-0.45 3.167c0.578 2.372 2.492 3.966 4.978 3.167 1.582-1.656 1.115-2.956 1.357-5.43 0.428-0.929 2.331-0.383 2.262-1.81-0.274-1.385-0.961-2.357-1.357-3.62-2.106 0.757-2.499-0.542-4.977-0.453-0.38 3.09-0.99 5.951-2.26 8.146zm-194.1 22.623c1.143 0.667 2.021 1.599 3.619 1.81 3.351-3.701 9.114-9.072 6.787-14.931-3.938 1.344-4.151 8.816-7.692 9.049 1.57-3.859 4.563-6.296 5.882-10.406-0.503-1.156-1.382-1.936-2.714-2.262-0.322-2.221-2.118-3.52-3.167-5.43-1.515-2.757-1.974-6.238-4.524-8.144-1.475 0.995-0.595 2.489-0.905 3.62-1.411 5.145-5.41 8.078-7.239 12.668 1.885 1.885 2.428 5.113 4.977 6.334 2.924-0.847 1.565-5.976 5.429-5.882-0.146 5.247-8.015 8.93-1.81 12.668 1.588 0.081 1.488-1.528 2.714-1.81-0.19 1.177-1.36 1.365-1.37 2.716zm144.78-21.718c-1.48 0.215-4.711-1.156-5.43 1.357 2.447 0.569 2.982 3.05 4.977 4.072 2.878-0.095 6.377-0.628 8.597-0.905 2.37-0.296 4.866 0.308 7.239 0 1.344-0.175 2.596-1.113 4.072-1.357 4.111-0.68 8.724 0.155 11.764-0.453 4.251-0.85 7.69-5.858 8.144-8.596-13.52 1.649-26.96 4.081-39.36 5.882zm-22.62-1.357c2.386 0.312 4.021 2.129 6.787 3.167 1.084-1.414-0.426-3.259-0.905-4.524-2.2-0.674-5.21-0.709-5.88 1.357zm-18.55 4.977c0.855-0.102 0.999 0.51 1.811 0.452 1.884-0.981 2.996-2.734 2.715-5.882-3.84-0.587-5.85 2.285-4.53 5.43zm-108.14 17.645c-4.561-7.806-8.604-16.13-15.383-21.718-0.733 2.408-6.392 12.17 0.453 12.668 0.107-2.607-0.23-5.66 1.81-6.334 1.884 2.112 0.242 5.317 0.905 8.144 1.321 1.092 3.621 1.205 4.977 2.262 0.711-0.344 0.676-1.436 1.81-1.357-1.44 3.328 3.93 5.95 5.42 6.335zm138-13.573c2.251-1.458 1.8-7.229-1.357-7.239-2.61 1.887-0.76 6.184 1.36 7.239zm-8.14 1.357c3.293-0.823 1.101-7.153-2.262-6.787-0.66 2.003 0.28 5.946 2.26 6.787zm58.36-5.882c-5.825 2.075-16.479 1.124-24.885 2.262-1.563 0.212-3.225 1.193-4.977 1.357-1.28 0.12-2.514-0.203-3.62 0-3.214 0.589-2.676 2.117-4.977 2.715 11.62 1.569 23.761-0.789 37.554 0 1.105-1.572 3.436-3.948 2.714-5.882-0.78 0.258-1.05-0.715-1.79-0.452zm20.82 0c-0.576 2.59-4.021 2.313-4.071 5.429 1.705 1.311 2.85 3.183 4.524 4.525 1.84-0.977 3.507-0.939 5.882-0.453-0.011-2.273 1.494-3.03 0.904-5.882-2.83-0.787-4.89-2.34-7.23-3.619zm-64.7 6.335c1.979-1.563-0.069-3.605-0.452-5.43-5.01-0.689-2.15 5.716 0.45 5.43zm-10.86 4.071c3.613 1.041 3.208-4.661 1.81-5.882h-1.357c-0.45 1.55-1.51 4.262-0.45 5.882zm12.21-1.809c0.899 0.006 0.575 1.234 1.81 0.905 4.66-1.921-1.55-6.974-1.81-0.905zm-126.68-1.81c-0.507 0.096-0.704 0.502-0.905 0.905 0.636 2.314 4.191 2.267 5.882 2.262-0.836 3.268 1.819 5.69 4.072 7.239 2.114-0.148 1.958-2.567 4.072-2.715 0.488 3.655-2.026 4.308-1.81 7.691 0.353 0.1 0.526 0.379 0.452 0.905 2.979 1.85 7.846 0.651 12.216 0.452 3.549-0.161 7.73 1.066 9.501-1.357-4.146-3.245-10.269-4.511-15.383-6.787-1.284-0.077-0.883 1.53-2.715 0.905-3.35-4.662-6.94-11.432-15.38-9.5zm186.41 2.262c-0.417-1.091-1.171-1.845-2.263-2.262 0.19 1.308 0.95 2.062 2.26 2.262zm11.76 1.357c2.613 3.239 1.993 8.992-2.263 9.954-4.375 0.989-9.509-2.229-7.691-8.144-2.368-1.376-6.643-4.42-8.144-0.453 0.522 1.438 2.093 1.828 2.714 3.167-0.571 1.088-0.581 2.736-1.356 3.62 2.856 0.311 3.953 2.38 4.524 4.977 2.529 0.418 2.366-1.856 4.977-1.357-0.123 1.853-1.836 2.384-0.905 4.072 3.276 0.533 4.605-2.183 8.597-0.453 1.277-2.159 6.019-3.719 3.167-7.239 2.019-1.45 4.725-2.213 5.882-4.524-1.271-2.514-0.123-4.197-0.452-6.334-4.17 0.275-7.59-2.187-9.05 2.714zm-206.77 10.407c3.324-0.006 6.062 0.573 8.596 1.357 1.474-0.788 1.302-3.223 3.167-3.62-0.026 1.634-1.128 2.19-1.357 3.62 1.947 1.443 4.444 2.396 7.239 1.81 0.016-1.802-1.3-3.611-2.263-4.977-2.461-3.492-5.243-6.482-9.049-8.144-1.99 3.44-4.6 6.269-6.34 9.954zm123.52-7.239c1.154 0.957 1.671 2.552 2.263 4.072 2.258-0.949 3.947-6.344 0.452-6.787-0.58 1.229-2.31 1.302-2.71 2.715zm80.54-2.715c-3.248-0.92-6.487 1.715-4.977 6.334 1.132-0.077 1.416 0.695 1.81 1.357 6.55 1.372 7.14-6.564 3.17-7.691zm-71.04 5.429c1.726-0.234 2.307-1.614 2.262-3.62-0.862-0.192-0.818-1.292-2.262-0.905-0.63 1.653-1.33 3.101 0 4.525zm23.08-1.357c-4.323-0.433-8.077-2.289-12.216-2.262-2.331 0.016-3.852 0.002-4.977 0-1.645 0.015-1.988 1.331-1.811 3.167 1.781 1.009 3.759 0.541 5.882 0.905 5.614 0.963 15.429 4.527 19.003 4.072 1.447-0.185 2.364-1.432 3.62-2.263 1.037-0.686 3.457-0.85 3.167-2.714-4.14-2.115-8.51-0.489-12.66-0.905zm-33.49 5.882c2.11-1.592 1.366-5.859-1.356-6.334-0.87 1.818-0.35 5.645 1.36 6.334zm3.17 1.357c3.033 2.382 7.028-0.757 5.882-5.429-3.1-0.883-4.8 2.856-5.88 5.429zm-9.5-0.452c1.416-0.093 3.321 0.305 4.072-0.453 0.604-1.331 0.373-2.998-0.452-4.072-0.46 2.254-4.22 1.214-3.62 4.525zm17.65-0.453c2.545 0.972 3.012-3.181 1.357-3.62-0.96 0.706-1.65 1.678-1.36 3.62zm3.62-0.452c1.228 3.152 5.459 1.971 8.144 2.714 4.104 1.137 7.699 3.58 10.859 4.977 1.496-1.972 4.669-2.269 5.429-4.977-7.6-0.942-17.56-6.778-24.43-2.714zm-14.48 5.429c1.747-0.062 1.854-1.766 1.81-3.62-0.67-0.235-1.141-0.669-1.81-0.905-1.44 1.002-0.74 3.243 0 4.525zm-4.53 1.358c1.78-0.482 2.754-1.771 3.167-3.62-2.08-2.749-5.07 1.102-3.17 3.62zm-11.76-3.168v2.263c2.188 1.055 4.751-0.004 4.524-2.715-1.24-1.015-3.28 0.068-4.52 0.452zm4.07 5.43c3.848 2.251 7.577-4.853 3.62-6.334-0.92 2.4-2.91 3.73-3.62 6.334zm16.74-1.357c2.148 3.3 6.766 6.377 9.501 9.954 1.833 2.396 3.862 6.879 7.692 4.524-5.54-5.319-9.371-12.347-16.288-16.288-0.23 0.673-0.66 1.144-0.9 1.814zm-24.43 2.714c2.229 0.117 4.397 0.175 4.072-2.262-1.82-1.239-5.85-0.196-4.07 2.262zm12.22 4.072c1.623 0.267 2.188-0.526 3.167-0.905 0.2-2.01-0.253-3.367-2.263-3.167-0.21 1.458-0.88 2.452-0.91 4.072zm-4.98-3.167v2.262c1.413 1.378 4.342 0.926 4.524-1.357-0.49-1.254-3.16-1.932-4.52-0.905zm21.72 9.045c-3.138-3.827-5.961-11.042-10.406-9.049-0.045 2.156 1.746 2.477 1.81 4.524 5.163 2.981 6.045 10.243 10.858 13.574 0.907-1.356 3.164-1.361 3.62-3.167-0.87-2.53-3.66-3.15-5.88-5.87zm-29.86-6.33c0.328 1.384-0.781 1.331-0.453 2.714 1.298 1.551 6.057 1.29 6.335-0.905-0.95-1.644-3.43-3.017-5.88-1.8zm6.78 4.98c2.217 1.404 4.367-0.609 4.524-2.714-1.74-0.95-4.67 0.3-4.52 2.71zm9.05-0.91c1.879 6.718 4.862 12.331 8.145 17.646 2.114-0.601 3.941-1.487 4.524-3.62-2.898-5.246-6.306-9.982-9.049-15.383-1.98-0.33-3.08 0.23-3.62 1.35zm-18.1 1.81c-1.759 6.252-4.118 9.363-4.977 16.741 1.834 0.276 2.662 1.561 4.977 1.357 1.56-5.739 1.742-10.525 2.715-17.193-0.94-0.26-1.28-1.13-2.71-0.91zm12.22 1.81c0.306 5.878 2.786 9.581 3.62 14.931 2.176-0.69 4.837-0.894 5.43-3.167-2.13-4.506-3.115-10.157-6.787-13.121-1.42-0.21-1.19 1.22-2.26 1.36zm-19.91 11.31c1.793-3.787 3.654-7.506 4.977-11.764-0.1-0.353-0.379-0.526-0.904-0.452-1.26 3.66-6.5 7.85-4.08 12.21zm-80.99-9.95c0.542 2.323 0.929 4.802 2.262 6.334 2.688-1.836 3.821-5.229 6.334-7.239-2.44-1.66-6.22-0.12-8.59 0.91zm91.4 13.12c1.396 1.155 3.386 1.538 5.43 0.905-0.596-5.135 1.741-13.204-2.715-14.479h-0.905c-0.74 5.12-1.55 8.86-1.81 13.57zm-40.27-11.76c-3.098 4.371-6.101 10.689-7.692 18.098-1.425 6.635-3.188 14.438-2.714 19.907 0.332 3.835 2.171 7.053 3.167 10.406 0.665 2.24 0.276 4.547 1.81 6.335 3.092-1.587 3.653-8.106 7.239-7.691-1.357 1.658-2.06 3.973-3.62 5.429 0.346 4.197 1.661 7.093 2.715 9.954 1.782 4.838 3.035 9.024 4.524 13.573 2.012 6.145 6.031 11.934 6.787 17.646 0.161 1.219-0.333 2.811 0 4.072 0.773 2.921 3.516 5.106 4.525 8.145 0.914 2.751 0.475 5.658 0.905 8.597 0.9 6.148 3.474 12.177 4.072 18.55 1.081 1.483 2.39 2.738 2.263 5.43-0.856 0.803-2.989 0.329-4.525 0.452-4.193 4.705-13.325 4.471-18.55 8.145 1.788 2.284 4.178 3.966 5.882 6.334 3.593 0.866 6.599-0.471 9.501 0.905 5.932-2.815 14.511-2.983 20.36-5.882 0.943-2.403-0.635-5.11-1.357-7.239-1.71-0.1-4.079 0.46-4.071-1.357 0.652-2.213 3.66-2.07 4.524-4.072-0.483-7.661 1.039-17.328-0.905-23.527 1.017-0.19 0.013-2.4 0.905-2.715-2.113-4.674-4.132-9.442-6.335-14.025 1.267-8.312 0.65-15.9 0-23.527-0.645-2.221-4.001-1.73-3.619-4.978 2.015-1.505 5.122-1.729 5.882-5.43-4.504-6.656-7.377-14.943-11.764-21.717-5.229-14.227-15.052-23.859-18.55-39.816-0.45 0.01-0.9 0.01-1.35 0.01zm-152.93 25.79c-0.752-0.756-1.185-1.832-2.715-1.81-4.81 0.167-7.631 2.323-9.954 4.977-0.141 1.368 0.502 3.519-0.905 3.62-1.135 0.903-1.515-1.176-3.167 0 3.152 4.54 7.278 8.104 8.597 14.479 1.132-0.077 1.417 0.694 1.81 1.356 1.532 4.345 3.997 9.738 4.524 15.384 0.212 2.271-0.793 5.739 0.453 5.882 2.923-1.394 0.684-6.452 1.357-8.145 3.271-0.405 0.971 4.761 2.715 5.882 3.845-1.521 9.423 2.487 11.311-2.714 0.802 0.404 0.577 1.836 2.262 1.357 1.837-4.952-4.154-4.541-6.334-7.239-0.381-0.473-0.22-1.214-0.905-1.357 0.38-0.525 0.597-1.214 0.453-2.263-2.971-3.19-1.339-7.371-2.262-10.858-0.626-2.365-2.421-3.858-3.167-6.335 0.89-1.07 2.243-1.678 3.619-2.262-0.691-2.986-3.064-5.706-4.072-9.049-0.585-1.94 0.378-5.219-2.715-5.429-0.242 1.56 0.671 4.28-0.905 4.52zm184.6 5.88c0.8-3.08 0.843-6.405-2.263-7.239-1.58 1.78-1.63 8.1 2.26 7.24zm-166.05-0.91c-3.457-1.76-8.13-2.382-9.049 1.357-0.528 2.151 1.809 4.366 2.262 6.787 2.829 0.265 4.722-0.406 6.334-1.357 1.196-3 1.567-3.55 0.453-6.79zm-25.789 42.99c-3.748-0.802-6.634-6.866-8.144-10.406-2.202-5.161-0.138-12.15 1.357-15.384 2.278-4.927 0.759-6.224-2.262-9.954-2.596-3.204-3.951-4.682-6.334-6.786-2.622 0.071-4.072-0.852-6.334 0-2.101 4.177-0.235 9.894-0.905 14.479 2.557 1.924 1.369 5.495 2.262 8.144 0.786 2.33 3.138 3.989 3.167 6.787 0.409 0.797 1.666 0.747 1.81 1.81 0.025 1.482 1.287 1.729 0.905 3.62 3.234 2.799 4.628 7.438 8.144 9.953-0.034 0.788 0.101 1.407 0.453 1.811 4.788 5.015 8.635 10.971 13.574 15.835 2.091-0.444 2.306 1.882 3.62 2.715 0.792 0.503 1.744-0.041 2.714 0.453 0.493 0.25 1.271 1.416 1.81 1.81 1.42 1.036 2.641 1.605 3.62 2.262 3.228 2.166 6.488 2.745 10.406 3.167 2.575 0.277 5.544-0.077 7.691 0.453 1.148 0.283 2 1.188 3.167 1.357 5.844 0.844 11.477-0.574 16.74-1.357 5.114-4.385 4.903-11.409-0.905-14.479-0.61-0.322-1.644 0.321-2.714 0-0.982-0.295-1.526-1.192-2.263-1.357-2.429-0.545-4.954-0.16-6.787-1.357-3.529 3.924-9.146 1.271-10.859-2.715-5.888-1.652-11.277-3.804-15.383-7.239-1.298-3.376-3.423-5.927-5.882-8.144-5.011 0.92-6.395 5.88-12.668 4.54zm130.76-41.18c-3.922 0.416-9.382 1.758-14.026 2.262-18.512 2.01-38.439 4.551-53.389 10.859h-2.715c-7.372 3.336-15.946 5.47-22.623 9.501-0.814 1.297-1.192 3.03-2.262 4.072-2.951 0.819-5.951 1.59-8.597 2.715-0.182 1.646-2.13 3.879-0.905 5.429 2.437-0.428 1.774-3.956 4.977-3.619 0.486 2.447-1.227 2.694-0.905 4.977 1.401 2.37 3.729 3.813 5.882 5.43 1.261 1.33 3.307-0.92 3.62 1.357-0.504 2.602-4.41 3.913-3.167 6.787 4.022-3.082 7.083-6.154 11.764-8.597 1.852-0.967 4.027-2.42 5.882-3.167 1.813-0.73 3.952-0.597 5.882-1.357 1.838-0.725 3.65-2.338 5.43-3.167 4.695-2.188 11.527-4.238 16.288-5.43 8.08-2.022 17.34-3.802 24.885-4.072 8.663-4.203 17.854-1.879 27.6-4.072 1.958 1.819 5.125-0.102 8.144 0 2.493 0.084 5.543 2.369 7.691 0-2.751-5.091-3.672-12.013-4.977-18.55-3.93-2.2-9.39-1.89-14.46-1.35zm62.89 7.69c1.062-1.747-0.258-4.399-0.452-6.334-1.09 0.185-0.983-0.827-2.263-0.453-1.5 1.69 0.69 5.78 2.71 6.78zm4.52-5.43c-0.498 3.577 1.389 8.52 1.811 12.669 5.559-0.475 5.029-7.036 5.429-12.669-2.84 0.58-5.31-1.11-7.24 0zm8.6 9.96c1.489 1.151 2.358 0.27 3.62 1.81 2.186-1.063 1.499-7.135 1.357-9.049-1.442-0.387-1.718 0.395-2.263 0.905v-2.263h-1.357c-1.13 2.19-1.17 5.47-1.36 8.6zm136.64 30.76c-9.133-4.415-18.178-10.05-28.052-13.573-5.15-1.839-9.854-4.466-14.931-4.524-2.945-2.222-5.688-3.703-9.954-3.62-1.716-2.282-4.948-2.224-8.597-3.167-3.107-0.804-5.417-1.488-9.049-2.263-2.68-0.57-5.185-2.315-7.239-2.714-0.934-0.182-2.194 0.248-3.167 0-0.881-0.226-1.321-1.09-2.262-1.357-5.931-1.687-12.251-2.032-18.551-3.167-5.979-1.078-11.659-3.281-17.646-4.072-2.549-0.337-4.962-0.086-7.239-0.905-0.454-0.001-0.538 0.366-0.905 0.452 0.603 2.717 3 3.637 3.62 6.335-2.491 4.004-0.183 6.865 1.357 9.954-0.211 2.353-3.328 1.799-3.167 4.524 3.425 2.647 8.083 3.02 12.216 3.619 3.634 0.527 5.264 0.806 7.691 1.357 6.172 1.403 14.666 2.791 19.908 4.072 1.575 0.385 3.171 0.101 4.524 0.452 1.869 0.485 3.225 1.824 4.977 2.263 1.774 0.442 3.665 0.052 5.43 0.452 3.15 0.716 5.921 2.567 9.049 3.619 1.52 0.512 3.013 0.366 4.524 0.905 2.9 1.033 5.832 2.532 9.049 3.62 4.081 1.379 6.538 2.89 9.502 4.071 0.651 0.26 1.587-0.201 2.262 0 4.118 1.231 8.01 3.92 11.312 5.43 2.071 0.947 4.313 1.261 6.335 2.263 3.837 1.9 7.28 4.404 10.858 6.334 1.213 0.656 1.418 4.021 3.167 2.715 2.85-1.124-2.386-2.554-0.452-4.072 1.36 0.299 1.579 1.739 3.619 1.357 1.644-2.451 4.961-5.601 4.978-9.049 0.01-2.258-3.01-3.618-0.905-5.43 2.419 0.146 0.954 4.174 4.072 3.619-0.12-5.11-4.8-5.72-6.33-9.47zm-323.5-31.21c-0.32 1.188-2.124 0.893-2.714 1.81-0.802 5.628 2 7.651 5.429 9.049 0.424 2.233-3.25 0.369-3.167 2.263 3.493 4.372 9.431 0.886 14.478 0.452 0.402-0.955 1.377-1.337 1.357-2.715-1.082-0.275-3.283 0.568-3.62-0.452 0.656-1.456 2.59-1.633 2.715-3.62-1.061-4.109-3.097-9-6.787-9.049-0.186-1.09 0.826-0.983 0.452-2.262-1.607-1.167-2.573 1.105-4.524 1.357-3.382 0.436-6.158-0.883-8.597-2.263-1.031 2.98 3.54 3.48 4.978 5.43zm196.36 3.62c0.931-2.28-0.449-5.78-0.905-8.144h-1.357c-0.8 2.57-0.41 7.56 2.26 8.14zm-212.65 15.83c-0.708-4.352-3.018-15.572-6.787-15.384-1.977 0.1-3.715 3.989-4.072 6.335-0.824 5.411 2.297 16.041 9.501 15.836 1.51-2.45 1.989-2.93 1.358-6.8zm199.98-14.93c-0.151 2.617 2.748 1.762 1.357 4.524 0.969 0.378 2.197 0.462 4.524 0.452 0.369-1.974 1.598-2.079 2.715-4.072-1.66-1.29-6.14-1.85-8.59-0.9zm-1.35 5.88c0.982-1.079 1.193-3.432 0.452-4.978h-2.714c0.73 1.69-0.14 4.97 2.26 4.98zm1.35 8.15c2.374 0.486 4.042 0.524 5.882-0.452-0.313-2.877 0.766-4.362 0.452-7.239-5.55-0.89-6.66 2.68-6.33 7.69zm-8.14-2.72c0.855-0.101 0.999 0.511 1.811 0.453 0.622-0.58 0.787-2.706-0.453-2.715-0.14 1.07-1.57 0.84-1.36 2.26zm-35.74 13.58c1.095 2.804 1.695 6.628 4.524 7.239 0.465-2.793-1.409-4.934-2.262-7.239-1.374-3.713-1.445-8.091-4.524-10.406h-0.905c0.19 4.42 1.87 7.09 3.17 10.41zm38.91 23.07c0.107-7.067 1.742-16.852 0-22.623-0.773-2.56-3.018-3.972-3.62-5.882h-0.904c-0.026-0.275-0.068-0.535-0.453-0.452-0.118 0.636-0.992 0.516-1.357 0.904-0.562 2.288 0.618 4.13 0.905 6.335 0.926 7.102-1.042 15.115 0 20.812 0.589 3.223 2.605 7.312 4.977 8.144 1.65-1.89 0.39-4.41 0.44-7.24zm40.26-27.6c-0.395-0.661-0.359-1.752-1.81-1.357-0.614 2.402-4.305 1.728-5.882 3.167 0.719 3.504 2.523 5.923 4.977 7.691 2.94-4.541 8.832-0.907 9.049 2.715 0.334 5.559-7.862 9.558-10.858 3.167-0.255-2.064 0.802-2.817 0.452-4.977-1.354-1.497-5.312-1.823-7.691-0.905 0.362 3.802 1.949 7.504 3.62 11.764 0.657 0.851 2.961 0.055 3.619 0.905 0.067 1.391-1.592 2.034-0.452 3.167 2.767 0.203 3.637-1.491 6.786-0.905 0.456-2.074-3.24-4.243 0-4.977 1.019 0.942 1.294 2.628 2.263 3.619 3.638 0.622 4.382-1.65 5.43-3.619-0.376-1.133-1.24-1.776-1.357-3.167 1.048-1.271 1.927-0.089 3.619-0.905 2.016-3.842-2.54-4.169-1.81-8.144-0.83-0.528-1.532-1.183-2.263-1.811-1.94-0.426-2.989 1.402-4.071 0.453 0.331-1.63 1.636-2.286 1.357-4.524-0.95-1.14-2.57-1.63-4.99-1.33zm-219.89 2.26c0.647 6.114 7.345 10.582 13.574 8.145 0.445-7.12-7.449-11.99-13.574-8.15zm33.934 3.62c-6.065 2.708-15.749 6.134-14.026 11.764 3.905-0.318 5.219-3.227 10.406-2.263 0.924 0.735 1.85 1.469 3.167 1.81 1.5-1.625 2.279-2.186 4.977-3.167-0.713-4.182 1.437-5.5 1.357-9.049-2.224-2-3.849 0-5.881 0.91zm150.21 2.72c0.02 0.622-0.214 0.993-0.453 1.356-0.937 3.918-0.104 8.792-0.452 13.574-0.227 3.117-2.559 8.866 0.452 10.858 2.461-1.995 1.416-5.876 1.811-9.049 0.71-5.714 2.141-11.642 2.262-16.288-0.66-0.7-2.32-0.4-3.62-0.45zm40.27 4.97c0.45-4.906-9.016-4.935-6.334 0.452 0.633-1.328 1.479-2.441 3.619-2.262-0.02 0.622 0.214 0.993 0.453 1.357 0.34 1.848-0.965 2.052-1.811 2.714 2.61 1.38 3.93-0.78 4.07-2.26zm-75.56 13.13c1.167 4.532 1.592 6.859 2.262 9.954 1.338 6.179 2.407 13.039 4.524 19.907-2.745 0.422-4.873 1.462-8.144 1.357-2.514 3.82-8.703 3.966-13.121 5.882 2.679 4.762 11.496 1.479 16.288 1.81 3.786 0.262 6.675 1.635 9.049-0.452 0.754-3.636-1.024-7.267-1.81-10.858-1.376-6.291-2.343-12.792-3.167-18.551-2.824-2.005-3.223-5.432-4.072-9.049-1.121-4.777-3-9.178-4.524-13.121-0.1-0.353-0.379-0.526-0.905-0.452-2.01 6.48 2.39 8.84 3.61 13.57zm166.95 9.5c0.674-0.532 1.277-1.136 1.81-1.81 0.033-3.804-2.571-4.97-3.62-7.691-6.61-2.438-16.575-8.33-23.527-10.406-2.473-0.738-3.699 1.809-4.977 2.715-0.173 2.133 2.623 1.298 2.715 3.167-1.427 0.917-4.76-1.083-4.524 2.262 12.52 2.22 19.91 11.92 32.12 11.76zm40.72-10.41c-4.741-2.896-10.946-4.533-17.192-1.81-1.52 0.14-3.922-0.604-3.62 1.357 3.056 3.668 8.459-1.657 11.312 0.905-2.885 0.886-5.882 1.658-8.597 2.714-0.645 2.904-0.909 4.842 0 7.692 1.076 0.885 3.046 0.875 4.072 1.81-0.079 2.184-3.409 1.115-5.43 1.357-0.13 2.161 2.391 1.975 3.62 2.262 2.308 0.54 5.117 0.173 7.239 0.905 2.115 0.73 2.787 2.995 4.977 2.263 0.32-1.679-0.773-1.942-0.452-3.62 1.324-0.118 1.39 1.023 2.715 0.905 2.059-1.573 3.205-4.616 2.714-7.692-0.414-2.595-3.433-3.716-2.714-5.429 2.205-0.095 2.367 1.854 4.524 1.81 1.22-2.59-1.51-4.42-3.16-5.43zm-85.51 4.98c-0.654 9.01 4.835 14.579 8.597 19.003 1.902 2.237 3.366 4.612 4.977 5.882 1.702 1.34 3.034 2.408 4.524 3.619 2.364 1.92 4.757 4.168 6.787 5.43 0.833 0.518 1.727 0.948 2.263 1.357 4.708 3.601 10.304 5.705 14.931 9.049 7.142 0.871 9.406 2.714 15.836 3.167 8.068 0.569 17.574-2.099 22.17-6.334 2.824-2.604 6.043-9.427 5.882-15.384-0.255-9.364-5.888-9.06-7.692-2.262-5.19 3.289-10.56 7.345-18.098 6.334-0.806-0.108-1.323-1.092-2.262-1.357-1.297-0.366-2.502-0.13-3.62-0.452-4.884-1.409-6.975-2.546-10.406-4.524-1.417-0.817-3.202-1.402-4.524-2.263-1.234-0.803-2.399-2.226-3.62-3.167-1.48-1.143-3.346-1.764-4.524-2.715-4.251-3.43-7.328-8.031-10.406-10.406-0.788-3.435-2.359-6.086-4.072-8.597-5.47-2.99-14.26-1.41-16.75 3.61zm72.39 15.38c-1.479-6.229-14.408-0.892-15.384 3.62 0.527 1.86 1.153 2.926 0.452 4.977 1.711 1.306 3.981 2.052 6.787 2.263 1.069-1.062-0.073-2.224 0-3.62 4.79-0.04 9.07-3.34 8.14-7.24zm1.81 5.88c3.87 0.401 4.717-2.221 5.429-4.977-1.48-0.933-3.136-1.689-4.977-2.263-1.06 1.73-2.1 5.41-0.45 7.24zm9.05-4.52c0.611 0.143 0.864 0.645 1.81 0.452v-2.262c-0.778 0.179-1.16-0.672-1.357 0 1.34 0.39-1.05 0.68-0.45 1.81zm-16.74 7.24c0.455 3.462 5.986 2.36 5.883-0.905-1.66-0.99-4.67-0.02-5.88 0.9z"/>
	<path d="m122.59 67.881c-1.225 3.299-2.893 6.156-4.977 8.597 0.66-2.067 2.44-6.908 4.98-8.597z"/>
	<path d="m285.47 122.63h3.167c1.548 1.468 2.246 3.787 2.262 6.787 0.141 0.614 1.133 0.375 1.811 0.453-2.046 4.137-3.322 9.045-7.692 10.859-0.531 2.032-1.295 3.832-2.715 4.977-3.725-0.348-6.98-1.163-8.596-3.619-1.282 0.075-1.886 0.829-3.168 0.904-1.468-2.604-3.98-4.164-6.334-5.882 1.716-3.922-0.871-11.196 4.524-12.216-0.569-1.981-0.569-4.354 0-6.334 1.789-1.552 6.408-5.141 8.145-1.357 3.98-1.04 7.37 2.24 8.61 5.43zm-9.5 3.62c2.798-0.672 5.041-1.897 5.43-4.977-1.446-1.752-2.918-2.729-5.43-1.357-1.044-0.766-1.416-2.204-3.167-2.262-2.6 3.58 0.73 7.24 3.17 8.6zm-4.53-1.81c0.098-1.756-0.479-2.838-1.81-3.167-0.01 1.67 0.21 3.11 1.81 3.17zm10.41 0.9c1.746 0.901 2.776-2.401 0.905-2.262-0.2 0.86-0.98 1.14-0.91 2.26zm4.53-0.9c-1.665 1.351-3.57 2.462-5.429 3.62 1.588 0.523 1.387 2.836 1.356 4.977 2.022 0.542 3.162 1.966 4.978 2.715 0.318-1.643 1.458-2.463 2.262-3.62-1.36-2.28-0.18-7.08-3.17-7.7zm-11.77 6.33c1.857 0.048 1.812-1.809 4.072-1.357-0.16-3.87-4.81-1.94-4.07 1.36zm-8.14-0.45c0.916 2.074 1.036 4.25 0.452 6.787 2.537 0.026 3.03 2.098 4.072 3.62 0.855 0.102 0.998-0.51 1.81-0.453 2.33-3.73-1.43-15.14-6.33-9.96zm12.67 3.62c0.282-1.227 1.891-1.126 1.811-2.715-0.599-0.005-0.414-0.793-0.905-0.905 0.65 1.89-2.57 2.22-0.9 3.62zm-4.08 4.07v3.619c1.723 1.258 5.421 2.049 7.238 1.811-1.104-4.12 3.094-2.94 2.715-6.335-2.7-3.82-6.97-0.92-9.96 0.91z"/>
</g>
<metadata><rdf:RDF><cc:Work><dc:format>image/svg+xml</dc:format><dc:type rdf:resource="http://purl.org/dc/dcmitype/StillImage"/><cc:license rdf:resource="http://creativecommons.org/licenses/publicdomain/"/><dc:publisher><cc:Agent rdf:about="http://openclipart.org/"><dc:title>Openclipart</dc:title></cc:Agent></dc:publisher><dc:title>cupid with list</dc:title><dc:date>2007-11-23T05:05:34</dc:date><dc:description>The Purple Parasol by George Barr McCutcheon by 1905</dc:description><dc:source>http://openclipart.org/detail/8911/cupid-with-list-by-johnny_automatic-8911</dc:source><dc:creator><cc:Agent><dc:title>johnny_automatic</dc:title></cc:Agent></dc:creator><dc:subject><rdf:Bag><rdf:li>banner</rdf:li><rdf:li>clip art</rdf:li><rdf:li>clipart</rdf:li><rdf:li>cupid</rdf:li><rdf:li>externalsource</rdf:li><rdf:li>flower</rdf:li><rdf:li>image</rdf:li><rdf:li>list</rdf:li><rdf:li>love</rdf:li><rdf:li>media</rdf:li><rdf:li>png</rdf:li><rdf:li>public domain</rdf:li><rdf:li>svg</rdf:li></rdf:Bag></dc:subject></cc:Work><cc:License rdf:about="http://creativecommons.org/licenses/publicdomain/"><cc:permits rdf:resource="http://creativecommons.org/ns#Reproduction"/><cc:permits rdf:resource="http://creativecommons.org/ns#Distribution"/><cc:permits rdf:resource="http://creativecommons.org/ns#DerivativeWorks"/></cc:License></rdf:RDF></metadata></svg>
